<?xml version="1.0" encoding="UTF-8" standalone="no"?>
<!DOCTYPE svg PUBLIC "-//W3C//DTD SVG 1.1//EN" "http://www.w3.org/Graphics/SVG/1.1/DTD/svg11.dtd">
<svg width="100%" height="100%" viewBox="0 0 1200 1200" version="1.1" xmlns="http://www.w3.org/2000/svg" xmlns:xlink="http://www.w3.org/1999/xlink" xml:space="preserve" xmlns:serif="http://www.serif.com/" style="fill-rule:evenodd;clip-rule:evenodd;">
    <g transform="matrix(1,0,0,1,-1939.139847,0)">
        <g id="Icon" transform="matrix(0.666667,0,0,1,600.250958,0)">
            <rect x="2008.333" y="0" width="1800" height="1200" style="fill:none;"/>
            <g id="Taiwlind-SVG" serif:id="Taiwlind SVG" transform="matrix(59.754171,0,0,41.280145,1990.198741,144.469643)">
                <path d="M9.891,16.538C14.684,16.957 15.456,20.739 18.1,21.4C19.967,21.867 21.6,21.167 23,19.3C22.067,23.033 19.733,24.9 16,24.9C10.4,24.9 9.7,20.7 6.9,20C5.033,19.533 3.4,20.233 2,22.1C2.68,19.38 4.104,17.65 6.271,16.912C6.534,17.063 6.848,17.175 7.215,17.196C8.032,17.244 8.823,17.089 9.679,16.65C9.75,16.613 9.821,16.576 9.891,16.538ZM10.059,12.548C9.692,12.864 9.339,13.247 9,13.7C9.163,13.05 9.367,12.456 9.615,11.92C9.758,12.135 9.905,12.347 10.02,12.497C10.032,12.514 10.046,12.531 10.059,12.548ZM10.678,10.244C11.813,8.934 13.398,8.224 15.433,8.115C15.369,8.232 15.301,8.351 15.228,8.47C14.856,9.088 14.385,9.79 14.068,10.214C14.044,10.246 12.086,10.303 10.678,10.244ZM18.363,8.397C18.936,8.555 19.439,8.769 19.89,9.017C19.309,9.228 18.737,9.375 18.737,9.375C18.737,9.375 18.601,8.984 18.363,8.397ZM21.402,10.107C22.734,11.293 23.626,12.631 25.1,13C26.967,13.467 28.6,12.767 30,10.9C29.067,14.633 26.733,16.5 23,16.5C21.389,16.5 20.183,16.152 19.217,15.64C19.396,15.215 19.508,14.72 19.553,14.19C19.68,12.655 19.181,10.925 19.181,10.925C19.181,10.925 20.288,10.646 21.402,10.107ZM17.646,14.535C16.573,13.591 15.789,12.54 14.772,11.957C14.887,11.801 14.96,11.699 14.96,11.699C15.771,11.608 16.731,11.463 17.573,11.313C17.573,11.313 17.854,11.977 17.867,13.162C17.874,13.773 17.793,14.203 17.646,14.535ZM16.057,10.052C16.292,9.69 16.671,9.061 16.841,8.678C16.951,8.994 17.123,9.393 17.231,9.845C17.231,9.845 16.872,9.935 16.69,9.967C16.494,10.002 16.057,10.052 16.057,10.052Z" style="fill:rgb(0,188,255);"/>
            </g>
            <g id="React-SVG" serif:id="React SVG" transform="matrix(14.265014,0,0,9.510009,2717.374721,433.08783)">
                <g transform="matrix(1,0,0,1,-47.916667,-42.63225)">
                    <clipPath id="_clip1">
                        <rect x="0" y="0" width="95.833" height="85.265"/>
                    </clipPath>
                    <g clip-path="url(#_clip1)">
                        <g>
                            <g transform="matrix(4.166667,0,0,4.166667,47.916667,42.63225)">
                                <circle cx="0" cy="0" r="2.05" style="fill:rgb(97,218,251);"/>
                            </g>
                            <g transform="matrix(4.166667,0,0,4.166667,47.916667,42.63225)">
                                <ellipse cx="0" cy="0" rx="11" ry="4.2" style="fill:none;stroke:rgb(97,218,251);stroke-width:1px;"/>
                                <g transform="matrix(0.5,0.866025,-0.866025,0.5,0,0)">
                                    <ellipse cx="0" cy="0" rx="11" ry="4.2" style="fill:none;stroke:rgb(97,218,251);stroke-width:1px;"/>
                                </g>
                                <g transform="matrix(-0.5,0.866025,-0.866025,-0.5,0,0)">
                                    <ellipse cx="0" cy="0" rx="11" ry="4.2" style="fill:none;stroke:rgb(97,218,251);stroke-width:1px;"/>
                                </g>
                            </g>
                        </g>
                    </g>
                </g>
            </g>
        </g>
    </g>
</svg>
