<?xml version="1.0" encoding="UTF-8" standalone="no"?>
<!DOCTYPE svg PUBLIC "-//W3C//DTD SVG 1.1//EN" "http://www.w3.org/Graphics/SVG/1.1/DTD/svg11.dtd">
<svg width="100%" height="100%" viewBox="0 0 1800 1200" version="1.1" xmlns="http://www.w3.org/2000/svg" xmlns:xlink="http://www.w3.org/1999/xlink" xml:space="preserve" xmlns:serif="http://www.serif.com/" style="fill-rule:evenodd;clip-rule:evenodd;">
    <rect id="Full-Logo" serif:id="Full Logo" x="0" y="0" width="1800" height="1200" style="fill:none;"/>
    <g id="Full-Logo1" serif:id="Full Logo">
        <g id="Icon" transform="matrix(1,0,0,1,158.553827,63.86682)">
            <g id="Taiwlind-SVG" serif:id="Taiwlind SVG" transform="matrix(30.723971,0,0,31.837693,294.565723,117.749313)">
                <path d="M14.095,8.287C14.517,8.197 14.963,8.14 15.433,8.115C15.369,8.232 15.301,8.351 15.228,8.47C14.856,9.088 14.385,9.79 14.068,10.214C14.044,10.246 12.086,10.303 10.678,10.244C11.017,9.853 11.396,9.515 11.815,9.231C11.93,9.248 12.049,9.257 12.169,9.257C12.966,9.257 13.671,8.873 14.095,8.287ZM9.891,16.538C14.684,16.957 15.456,20.739 18.1,21.4C19.967,21.867 21.6,21.167 23,19.3C22.067,23.033 19.733,24.9 16,24.9C10.4,24.9 9.7,20.7 6.9,20C5.033,19.533 3.4,20.233 2,22.1C2.68,19.38 4.104,17.65 6.271,16.912C6.534,17.063 6.848,17.175 7.215,17.196C8.032,17.244 8.823,17.089 9.679,16.65C9.75,16.613 9.821,16.576 9.891,16.538ZM10.059,12.548C9.692,12.864 9.339,13.247 9,13.7C9.163,13.05 9.367,12.456 9.615,11.92C9.758,12.135 9.905,12.347 10.02,12.497C10.032,12.514 10.046,12.531 10.059,12.548ZM18.363,8.397C18.936,8.555 19.439,8.769 19.89,9.017C19.309,9.228 18.737,9.375 18.737,9.375C18.737,9.375 18.601,8.984 18.363,8.397ZM21.402,10.107C22.734,11.293 23.626,12.631 25.1,13C26.967,13.467 28.6,12.767 30,10.9C29.067,14.633 26.733,16.5 23,16.5C21.389,16.5 20.183,16.152 19.217,15.64C19.396,15.215 19.508,14.72 19.553,14.19C19.68,12.655 19.181,10.925 19.181,10.925C19.181,10.925 20.288,10.646 21.402,10.107ZM17.646,14.535C16.573,13.591 15.789,12.54 14.772,11.957C14.887,11.801 14.96,11.699 14.96,11.699C15.771,11.608 16.731,11.463 17.573,11.313C17.573,11.313 17.854,11.977 17.867,13.162C17.874,13.773 17.793,14.203 17.646,14.535ZM16.078,10.013C16.313,9.651 16.664,9.119 16.834,8.737C16.972,9.072 17.049,9.282 17.211,9.813C17.211,9.813 16.879,9.903 16.696,9.935C16.501,9.969 16.078,10.013 16.078,10.013Z" style="fill:rgb(0,188,255);"/>
            </g>
            <g id="React-SVG" serif:id="React SVG" transform="matrix(7.334682,0,0,7.334682,668.459851,340.348756)">
                <g transform="matrix(1,0,0,1,-47.916667,-42.63225)">
                    <clipPath id="_clip1">
                        <rect x="0" y="0" width="95.833" height="85.265"/>
                    </clipPath>
                    <g clip-path="url(#_clip1)">
                        <g>
                            <g transform="matrix(4.166667,0,0,4.166667,47.916667,42.63225)">
                                <circle cx="0" cy="0" r="2.05" style="fill:rgb(97,218,251);"/>
                            </g>
                            <g transform="matrix(4.166667,0,0,4.166667,47.916667,42.63225)">
                                <ellipse cx="0" cy="0" rx="11" ry="4.2" style="fill:none;stroke:rgb(97,218,251);stroke-width:1px;"/>
                                <g transform="matrix(0.5,0.866025,-0.866025,0.5,0,0)">
                                    <ellipse cx="0" cy="0" rx="11" ry="4.2" style="fill:none;stroke:rgb(97,218,251);stroke-width:1px;"/>
                                </g>
                                <g transform="matrix(-0.5,0.866025,-0.866025,-0.5,0,0)">
                                    <ellipse cx="0" cy="0" rx="11" ry="4.2" style="fill:none;stroke:rgb(97,218,251);stroke-width:1px;"/>
                                </g>
                            </g>
                        </g>
                    </g>
                </g>
            </g>
        </g>
        <g id="Titles" transform="matrix(4.664504,0,0,4.664504,-1929.753526,-1808.10922)">
            <g transform="matrix(0.413711,0,0,0.413711,398.653404,406.764346)">
                <g transform="matrix(41.666667,0,0,41.666667,938.509075,527.658815)">
                </g>
                <text x="479.301px" y="527.659px" style="font-family:'ArialMT', 'Arial', sans-serif;font-size:41.667px;">COMPONENT<tspan x="749.381px 760.958px " y="527.659px 527.659px "> L</tspan>IBRAR<tspan x="910.718px " y="527.659px ">Y</tspan></text>
            </g>
            <g transform="matrix(0.890723,0,0,0.890723,132.287528,-49.442578)">
                <g transform="matrix(41.666667,0,0,41.666667,715.047548,737.127391)">
                </g>
                <text x="522.156px" y="737.127px" style="font-family:'ArialMT', 'Arial', sans-serif;font-size:41.667px;">T<tspan x="544.515px 572.307px 583.883px 603.964px 643.291px " y="737.127px 737.127px 737.127px 737.127px 737.127px ">AILWI</tspan>ND</text>
            </g>
            <g transform="matrix(0.10573,0,0,0.10573,538.307388,568.613686)">
                <path d="M328.893,280.57L246.329,280.57L246.329,196.468L328.893,196.468L328.893,113.904L412.996,113.904L412.996,196.468L495.56,196.468L495.56,280.57L412.996,280.57L412.996,363.134L328.893,363.134L328.893,280.57Z" style="fill:rgb(15,15,15);"/>
            </g>
            <g transform="matrix(0.890723,0,0,0.890723,-30.511177,-49.442578)">
                <g transform="matrix(41.666667,0,0,41.666667,663.371116,737.127391)">
                </g>
                <text x="522.156px" y="737.127px" style="font-family:'ArialMT', 'Arial', sans-serif;font-size:41.667px;">REACT</text>
            </g>
            <g transform="matrix(0.413711,0,0,0.413711,239.062026,357.58557)">
                <g transform="matrix(41.666667,0,0,41.666667,683.01591,527.658815)">
                </g>
                <text x="479.301px" y="527.659px" style="font-family:'ArialMT', 'Arial', sans-serif;font-size:41.667px;">ANOTHER</text>
            </g>
        </g>
    </g>
</svg>
