<?xml version="1.0" encoding="UTF-8" standalone="no"?>
<!DOCTYPE svg PUBLIC "-//W3C//DTD SVG 1.1//EN" "http://www.w3.org/Graphics/SVG/1.1/DTD/svg11.dtd">
<svg width="100%" height="100%" viewBox="0 0 1800 1200" version="1.1" xmlns="http://www.w3.org/2000/svg" xmlns:xlink="http://www.w3.org/1999/xlink" xml:space="preserve" xmlns:serif="http://www.serif.com/" style="fill-rule:evenodd;clip-rule:evenodd;">
    <g transform="matrix(1,0,0,1,0,-1408)">
        <g id="Full-Logo-Dark" serif:id="Full Logo Dark" transform="matrix(1,0,0,1,0,-0.333333)">
            <rect x="0" y="1408.333" width="1800" height="1200" style="fill:none;"/>
            <g id="Graphics" transform="matrix(1.507129,0,0,1.507129,-401.966873,1023.669794)">
                <g id="Taiwlind-SVG" serif:id="Taiwlind SVG" transform="matrix(15.585786,0,0,16.15076,641.113503,330.359935)">
                    <path d="M9.891,16.538C14.684,16.957 15.456,20.739 18.1,21.4C19.967,21.867 21.6,21.167 23,19.3C22.067,23.033 19.733,24.9 16,24.9C10.4,24.9 9.7,20.7 6.9,20C5.033,19.533 3.4,20.233 2,22.1C2.68,19.38 4.104,17.65 6.271,16.912C6.534,17.063 6.848,17.175 7.215,17.196C8.032,17.244 8.823,17.089 9.679,16.65C9.75,16.613 9.821,16.576 9.891,16.538ZM10.059,12.548C9.692,12.864 9.339,13.247 9,13.7C9.163,13.05 9.367,12.456 9.615,11.92C9.758,12.135 9.905,12.347 10.02,12.497C10.032,12.514 10.046,12.531 10.059,12.548ZM10.678,10.244C11.813,8.934 13.398,8.224 15.433,8.115C15.369,8.232 15.301,8.351 15.228,8.47C14.856,9.088 14.385,9.79 14.068,10.214C14.044,10.246 12.086,10.303 10.678,10.244ZM18.363,8.397C18.936,8.555 19.439,8.769 19.89,9.017C19.309,9.228 18.737,9.375 18.737,9.375C18.737,9.375 18.601,8.984 18.363,8.397ZM21.402,10.107C22.734,11.293 23.626,12.631 25.1,13C26.967,13.467 28.6,12.767 30,10.9C29.067,14.633 26.733,16.5 23,16.5C21.389,16.5 20.183,16.152 19.217,15.64C19.396,15.215 19.508,14.72 19.553,14.19C19.68,12.655 19.181,10.925 19.181,10.925C19.181,10.925 20.288,10.646 21.402,10.107ZM17.646,14.535C16.573,13.591 15.789,12.54 14.772,11.957C14.887,11.801 14.96,11.699 14.96,11.699C15.771,11.608 16.731,11.463 17.573,11.313C17.573,11.313 17.854,11.977 17.867,13.162C17.874,13.773 17.793,14.203 17.646,14.535ZM16.057,10.052C16.292,9.69 16.671,9.061 16.841,8.678C16.951,8.994 17.123,9.393 17.231,9.845C17.231,9.845 16.872,9.935 16.69,9.967C16.494,10.002 16.057,10.052 16.057,10.052Z" style="fill:rgb(0,188,255);"/>
                </g>
                <g id="React-SVG" serif:id="React SVG" transform="matrix(3.720769,0,0,3.720769,830.784099,443.281122)">
                    <g transform="matrix(1,0,0,1,-47.916667,-42.63225)">
                        <clipPath id="_clip1">
                            <rect x="0" y="0" width="95.833" height="85.265"/>
                        </clipPath>
                        <g clip-path="url(#_clip1)">
                            <g>
                                <g transform="matrix(4.166667,0,0,4.166667,47.916667,42.63225)">
                                    <circle cx="0" cy="0" r="2.05" style="fill:rgb(97,218,251);"/>
                                </g>
                                <g transform="matrix(4.166667,0,0,4.166667,47.916667,42.63225)">
                                    <ellipse cx="0" cy="0" rx="11" ry="4.2" style="fill:none;stroke:rgb(97,218,251);stroke-width:1px;"/>
                                    <g transform="matrix(0.5,0.866025,-0.866025,0.5,0,0)">
                                        <ellipse cx="0" cy="0" rx="11" ry="4.2" style="fill:none;stroke:rgb(97,218,251);stroke-width:1px;"/>
                                    </g>
                                    <g transform="matrix(-0.5,0.866025,-0.866025,-0.5,0,0)">
                                        <ellipse cx="0" cy="0" rx="11" ry="4.2" style="fill:none;stroke:rgb(97,218,251);stroke-width:1px;"/>
                                    </g>
                                </g>
                            </g>
                        </g>
                    </g>
                </g>
            </g>
            <g id="Titles" transform="matrix(4.664504,0,0,4.664504,-1913.896092,-453.269704)">
                <g transform="matrix(0.413711,0,0,0.413711,398.653404,406.764346)">
                    <g transform="matrix(41.666667,0,0,41.666667,479.300904,527.658815)">
                        <path d="M0.049,-0.333C0.049,-0.221 0.078,-0.135 0.136,-0.075C0.195,-0.015 0.271,0.014 0.366,0.014C0.456,0.014 0.526,-0.009 0.577,-0.056C0.627,-0.103 0.654,-0.163 0.657,-0.235L0.658,-0.248L0.507,-0.248L0.506,-0.235C0.504,-0.194 0.492,-0.162 0.469,-0.137C0.446,-0.113 0.412,-0.101 0.366,-0.101C0.315,-0.101 0.275,-0.119 0.246,-0.155C0.217,-0.192 0.203,-0.246 0.203,-0.317L0.203,-0.394C0.203,-0.471 0.217,-0.526 0.247,-0.56C0.277,-0.593 0.316,-0.61 0.365,-0.61C0.412,-0.61 0.448,-0.599 0.471,-0.575C0.495,-0.552 0.507,-0.519 0.507,-0.477L0.507,-0.463L0.658,-0.463L0.658,-0.475C0.658,-0.548 0.632,-0.608 0.579,-0.655C0.527,-0.702 0.456,-0.725 0.366,-0.725C0.272,-0.725 0.195,-0.696 0.137,-0.637C0.078,-0.578 0.049,-0.491 0.049,-0.378L0.049,-0.333Z" style="fill:white;fill-rule:nonzero;"/>
                    </g>
                    <g transform="matrix(41.666667,0,0,41.666667,507.804322,527.658815)">
                        <path d="M0.049,-0.333C0.049,-0.22 0.078,-0.134 0.138,-0.074C0.197,-0.015 0.273,0.014 0.367,0.014C0.46,0.014 0.537,-0.015 0.597,-0.074C0.657,-0.134 0.687,-0.22 0.687,-0.333L0.687,-0.378C0.687,-0.491 0.657,-0.577 0.597,-0.636C0.537,-0.696 0.46,-0.725 0.367,-0.725C0.273,-0.725 0.197,-0.696 0.138,-0.636C0.078,-0.577 0.049,-0.491 0.049,-0.378L0.049,-0.333ZM0.202,-0.32L0.202,-0.391C0.202,-0.465 0.217,-0.52 0.247,-0.556C0.277,-0.592 0.317,-0.61 0.367,-0.61C0.417,-0.61 0.458,-0.592 0.488,-0.556C0.518,-0.52 0.533,-0.465 0.533,-0.391L0.533,-0.32C0.533,-0.246 0.518,-0.191 0.488,-0.155C0.458,-0.119 0.417,-0.101 0.367,-0.101C0.317,-0.101 0.277,-0.119 0.247,-0.155C0.217,-0.191 0.202,-0.246 0.202,-0.32Z" style="fill:white;fill-rule:nonzero;"/>
                    </g>
                    <g transform="matrix(41.666667,0,0,41.666667,538.44397,527.658815)">
                        <path d="M0.076,-0L0.198,-0L0.198,-0.454C0.198,-0.465 0.198,-0.477 0.198,-0.49C0.197,-0.503 0.197,-0.515 0.196,-0.526L0.199,-0.526C0.201,-0.515 0.204,-0.503 0.207,-0.49C0.21,-0.477 0.214,-0.465 0.218,-0.454L0.384,-0L0.506,-0L0.674,-0.454C0.678,-0.465 0.681,-0.477 0.684,-0.49C0.688,-0.503 0.69,-0.515 0.692,-0.526L0.696,-0.526C0.694,-0.515 0.694,-0.503 0.693,-0.49C0.693,-0.477 0.692,-0.465 0.692,-0.454L0.692,-0L0.841,-0L0.841,-0.711L0.646,-0.711L0.476,-0.25C0.472,-0.24 0.468,-0.229 0.465,-0.219C0.462,-0.21 0.46,-0.199 0.458,-0.187L0.455,-0.187C0.453,-0.199 0.45,-0.21 0.447,-0.219C0.445,-0.229 0.441,-0.239 0.437,-0.25L0.267,-0.711L0.076,-0.711L0.076,-0Z" style="fill:white;fill-rule:nonzero;"/>
                    </g>
                    <g transform="matrix(41.666667,0,0,41.666667,576.631633,527.658815)">
                        <path d="M0.076,-0L0.225,-0L0.225,-0.25L0.346,-0.25C0.429,-0.25 0.493,-0.27 0.538,-0.31C0.582,-0.351 0.604,-0.408 0.604,-0.481C0.604,-0.555 0.582,-0.612 0.537,-0.651C0.493,-0.691 0.429,-0.711 0.347,-0.711L0.076,-0.711L0.076,-0ZM0.225,-0.361L0.225,-0.599L0.333,-0.599C0.379,-0.599 0.411,-0.588 0.428,-0.568C0.446,-0.547 0.455,-0.518 0.455,-0.481C0.455,-0.444 0.446,-0.414 0.428,-0.393C0.411,-0.372 0.379,-0.361 0.333,-0.361L0.225,-0.361Z" style="fill:white;fill-rule:nonzero;"/>
                    </g>
                    <g transform="matrix(41.666667,0,0,41.666667,602.79537,527.658815)">
                        <path d="M0.049,-0.333C0.049,-0.22 0.078,-0.134 0.138,-0.074C0.197,-0.015 0.273,0.014 0.367,0.014C0.46,0.014 0.537,-0.015 0.597,-0.074C0.657,-0.134 0.687,-0.22 0.687,-0.333L0.687,-0.378C0.687,-0.491 0.657,-0.577 0.597,-0.636C0.537,-0.696 0.46,-0.725 0.367,-0.725C0.273,-0.725 0.197,-0.696 0.138,-0.636C0.078,-0.577 0.049,-0.491 0.049,-0.378L0.049,-0.333ZM0.202,-0.32L0.202,-0.391C0.202,-0.465 0.217,-0.52 0.247,-0.556C0.277,-0.592 0.317,-0.61 0.367,-0.61C0.417,-0.61 0.458,-0.592 0.488,-0.556C0.518,-0.52 0.533,-0.465 0.533,-0.391L0.533,-0.32C0.533,-0.246 0.518,-0.191 0.488,-0.155C0.458,-0.119 0.417,-0.101 0.367,-0.101C0.317,-0.101 0.277,-0.119 0.247,-0.155C0.217,-0.191 0.202,-0.246 0.202,-0.32Z" style="fill:white;fill-rule:nonzero;"/>
                    </g>
                    <g transform="matrix(41.666667,0,0,41.666667,633.435019,527.658815)">
                        <path d="M0.076,-0L0.205,-0L0.205,-0.429C0.205,-0.44 0.205,-0.451 0.205,-0.462C0.205,-0.473 0.204,-0.484 0.204,-0.495L0.208,-0.495C0.211,-0.485 0.215,-0.475 0.219,-0.466C0.223,-0.457 0.228,-0.447 0.233,-0.437L0.486,-0L0.649,-0L0.649,-0.711L0.52,-0.711L0.52,-0.276C0.52,-0.265 0.52,-0.255 0.52,-0.245C0.52,-0.235 0.52,-0.225 0.521,-0.214L0.517,-0.214C0.513,-0.224 0.509,-0.233 0.505,-0.242C0.501,-0.251 0.496,-0.26 0.49,-0.27L0.235,-0.711L0.076,-0.711L0.076,-0Z" style="fill:white;fill-rule:nonzero;"/>
                    </g>
                    <g transform="matrix(41.666667,0,0,41.666667,663.647421,527.658815)">
                        <path d="M0.076,-0L0.56,-0L0.56,-0.113L0.224,-0.113L0.224,-0.31L0.51,-0.31L0.51,-0.422L0.224,-0.422L0.224,-0.597L0.554,-0.597L0.554,-0.711L0.076,-0.711L0.076,-0Z" style="fill:white;fill-rule:nonzero;"/>
                    </g>
                    <g transform="matrix(41.666667,0,0,41.666667,688.285279,527.658815)">
                        <path d="M0.076,-0L0.205,-0L0.205,-0.429C0.205,-0.44 0.205,-0.451 0.205,-0.462C0.205,-0.473 0.204,-0.484 0.204,-0.495L0.208,-0.495C0.211,-0.485 0.215,-0.475 0.219,-0.466C0.223,-0.457 0.228,-0.447 0.233,-0.437L0.486,-0L0.649,-0L0.649,-0.711L0.52,-0.711L0.52,-0.276C0.52,-0.265 0.52,-0.255 0.52,-0.245C0.52,-0.235 0.52,-0.225 0.521,-0.214L0.517,-0.214C0.513,-0.224 0.509,-0.233 0.505,-0.242C0.501,-0.251 0.496,-0.26 0.49,-0.27L0.235,-0.711L0.076,-0.711L0.076,-0Z" style="fill:white;fill-rule:nonzero;"/>
                    </g>
                    <g transform="matrix(41.666667,0,0,41.666667,718.212851,527.658815)">
                        <path d="M0.011,-0.597L0.223,-0.597L0.223,-0L0.373,-0L0.373,-0.597L0.584,-0.597L0.584,-0.711L0.011,-0.711L0.011,-0.597Z" style="fill:white;fill-rule:nonzero;"/>
                    </g>
                    <g transform="matrix(41.666667,0,0,41.666667,742.220012,527.658815)">
                    </g>
                    <g transform="matrix(41.666667,0,0,41.666667,752.392538,527.658815)">
                        <path d="M0.076,-0L0.537,-0L0.537,-0.114L0.225,-0.114L0.225,-0.711L0.076,-0.711L0.076,-0Z" style="fill:white;fill-rule:nonzero;"/>
                    </g>
                    <g transform="matrix(41.666667,0,0,41.666667,775.545207,527.658815)">
                        <rect x="0.074" y="-0.711" width="0.15" height="0.711" style="fill:white;fill-rule:nonzero;"/>
                    </g>
                    <g transform="matrix(41.666667,0,0,41.666667,787.955689,527.658815)">
                        <path d="M0.076,-0L0.355,-0C0.432,-0 0.494,-0.018 0.542,-0.054C0.589,-0.09 0.613,-0.14 0.613,-0.205C0.613,-0.251 0.602,-0.288 0.581,-0.316C0.559,-0.345 0.532,-0.364 0.5,-0.373L0.5,-0.375C0.526,-0.384 0.548,-0.401 0.566,-0.427C0.584,-0.452 0.594,-0.484 0.594,-0.523C0.594,-0.587 0.571,-0.635 0.526,-0.665C0.481,-0.696 0.419,-0.711 0.341,-0.711L0.076,-0.711L0.076,-0ZM0.224,-0.106L0.224,-0.319L0.352,-0.319C0.39,-0.319 0.418,-0.309 0.437,-0.29C0.455,-0.271 0.464,-0.245 0.464,-0.213C0.464,-0.18 0.455,-0.154 0.437,-0.135C0.418,-0.116 0.39,-0.106 0.352,-0.106L0.224,-0.106ZM0.224,-0.419L0.224,-0.604L0.338,-0.604C0.376,-0.604 0.403,-0.596 0.42,-0.58C0.437,-0.564 0.446,-0.542 0.446,-0.512C0.446,-0.483 0.437,-0.46 0.42,-0.443C0.403,-0.427 0.376,-0.419 0.338,-0.419L0.224,-0.419Z" style="fill:white;fill-rule:nonzero;"/>
                    </g>
                    <g transform="matrix(41.666667,0,0,41.666667,815.279094,527.658815)">
                        <path d="M0.076,-0L0.225,-0L0.225,-0.258L0.334,-0.258C0.417,-0.258 0.482,-0.278 0.528,-0.319C0.575,-0.359 0.598,-0.415 0.598,-0.487C0.598,-0.558 0.575,-0.613 0.529,-0.652C0.482,-0.691 0.418,-0.711 0.335,-0.711L0.076,-0.711L0.076,-0ZM0.225,-0.368L0.225,-0.599L0.33,-0.599C0.373,-0.599 0.404,-0.589 0.422,-0.569C0.44,-0.549 0.449,-0.521 0.449,-0.485C0.449,-0.45 0.44,-0.421 0.422,-0.4C0.404,-0.379 0.373,-0.368 0.33,-0.368L0.225,-0.368ZM0.465,-0L0.632,-0L0.455,-0.335L0.297,-0.328L0.465,-0Z" style="fill:white;fill-rule:nonzero;"/>
                    </g>
                    <g transform="matrix(41.666667,0,0,41.666667,841.931112,527.658815)">
                        <path d="M-0.013,-0L0.126,-0L0.309,-0.503C0.313,-0.513 0.316,-0.524 0.318,-0.534C0.321,-0.544 0.323,-0.554 0.325,-0.565L0.329,-0.565C0.331,-0.554 0.333,-0.544 0.335,-0.534C0.338,-0.524 0.341,-0.514 0.345,-0.503L0.528,-0L0.689,-0L0.414,-0.714L0.257,-0.714L-0.013,-0ZM0.14,-0.157L0.523,-0.157L0.489,-0.268L0.175,-0.268L0.14,-0.157Z" style="fill:white;fill-rule:nonzero;"/>
                    </g>
                    <g transform="matrix(41.666667,0,0,41.666667,870.088664,527.658815)">
                        <path d="M0.076,-0L0.225,-0L0.225,-0.258L0.334,-0.258C0.417,-0.258 0.482,-0.278 0.528,-0.319C0.575,-0.359 0.598,-0.415 0.598,-0.487C0.598,-0.558 0.575,-0.613 0.529,-0.652C0.482,-0.691 0.418,-0.711 0.335,-0.711L0.076,-0.711L0.076,-0ZM0.225,-0.368L0.225,-0.599L0.33,-0.599C0.373,-0.599 0.404,-0.589 0.422,-0.569C0.44,-0.549 0.449,-0.521 0.449,-0.485C0.449,-0.45 0.44,-0.421 0.422,-0.4C0.404,-0.379 0.373,-0.368 0.33,-0.368L0.225,-0.368ZM0.465,-0L0.632,-0L0.455,-0.335L0.297,-0.328L0.465,-0Z" style="fill:white;fill-rule:nonzero;"/>
                    </g>
                    <g transform="matrix(41.666667,0,0,41.666667,895.80481,527.658815)">
                        <path d="M0.239,-0L0.388,-0L0.388,-0.26L0.63,-0.711L0.484,-0.711L0.344,-0.446C0.339,-0.436 0.335,-0.427 0.331,-0.419C0.327,-0.41 0.324,-0.401 0.321,-0.392L0.318,-0.392C0.315,-0.401 0.311,-0.41 0.308,-0.419C0.304,-0.428 0.3,-0.437 0.295,-0.446L0.158,-0.711L-0.009,-0.711L0.239,-0.252L0.239,-0Z" style="fill:white;fill-rule:nonzero;"/>
                    </g>
                    <g transform="matrix(41.666667,0,0,41.666667,921.683716,527.658815)">
                    </g>
                </g>
                <g transform="matrix(0.890723,0,0,0.890723,132.287528,-49.442578)">
                    <g transform="matrix(41.666667,0,0,41.666667,522.156109,737.127391)">
                        <path d="M0.011,-0.561L0.205,-0.561L0.205,-0L0.411,-0L0.411,-0.561L0.605,-0.561L0.605,-0.711L0.011,-0.711L0.011,-0.561Z" style="fill:white;fill-rule:nonzero;"/>
                    </g>
                    <g transform="matrix(41.666667,0,0,41.666667,546.305686,737.127391)">
                        <path d="M-0.027,-0L0.158,-0L0.327,-0.468C0.331,-0.479 0.333,-0.49 0.335,-0.5C0.337,-0.51 0.339,-0.52 0.34,-0.53L0.344,-0.53C0.345,-0.52 0.347,-0.51 0.349,-0.5C0.351,-0.49 0.354,-0.479 0.357,-0.468L0.528,-0L0.753,-0L0.474,-0.713L0.243,-0.713L-0.027,-0ZM0.164,-0.128L0.54,-0.128L0.498,-0.273L0.204,-0.273L0.164,-0.128Z" style="fill:white;fill-rule:nonzero;"/>
                    </g>
                    <g transform="matrix(41.666667,0,0,41.666667,576.558779,737.127391)">
                        <rect x="0.062" y="-0.711" width="0.206" height="0.711" style="fill:white;fill-rule:nonzero;"/>
                    </g>
                    <g transform="matrix(41.666667,0,0,41.666667,590.352724,737.127391)">
                        <path d="M0.068,-0L0.56,-0L0.56,-0.15L0.274,-0.15L0.274,-0.711L0.068,-0.711L0.068,-0Z" style="fill:white;fill-rule:nonzero;"/>
                    </g>
                    <g transform="matrix(41.666667,0,0,41.666667,611.430198,737.127391)">
                        <path d="M0.166,-0L0.399,-0L0.502,-0.43C0.505,-0.442 0.507,-0.451 0.508,-0.46C0.508,-0.468 0.509,-0.478 0.51,-0.489L0.514,-0.489C0.514,-0.478 0.515,-0.468 0.516,-0.46C0.517,-0.451 0.519,-0.442 0.521,-0.43L0.625,-0L0.868,-0L1.021,-0.711L0.852,-0.711L0.766,-0.282C0.764,-0.27 0.763,-0.261 0.762,-0.254C0.761,-0.247 0.76,-0.238 0.759,-0.227L0.755,-0.227C0.754,-0.238 0.753,-0.247 0.753,-0.254C0.752,-0.261 0.751,-0.27 0.748,-0.282L0.651,-0.711L0.413,-0.711L0.314,-0.28C0.312,-0.269 0.311,-0.26 0.31,-0.253C0.309,-0.247 0.309,-0.238 0.308,-0.227L0.304,-0.227C0.303,-0.238 0.302,-0.247 0.301,-0.253C0.3,-0.26 0.299,-0.269 0.296,-0.28L0.208,-0.711L0.005,-0.711L0.166,-0Z" style="fill:white;fill-rule:nonzero;"/>
                    </g>
                    <g transform="matrix(41.666667,0,0,41.666667,654.175152,737.127391)">
                        <rect x="0.062" y="-0.711" width="0.206" height="0.711" style="fill:white;fill-rule:nonzero;"/>
                    </g>
                    <g transform="matrix(41.666667,0,0,41.666667,667.969098,737.127391)">
                        <path d="M0.068,-0L0.236,-0L0.236,-0.369C0.236,-0.381 0.236,-0.392 0.235,-0.402C0.235,-0.412 0.235,-0.424 0.234,-0.436L0.238,-0.436C0.24,-0.424 0.243,-0.414 0.245,-0.405C0.248,-0.396 0.251,-0.387 0.256,-0.376L0.44,-0L0.668,-0L0.668,-0.711L0.501,-0.711L0.501,-0.33C0.501,-0.317 0.501,-0.307 0.501,-0.3C0.501,-0.293 0.502,-0.283 0.502,-0.271L0.499,-0.271C0.495,-0.283 0.492,-0.293 0.49,-0.3C0.487,-0.308 0.483,-0.317 0.479,-0.327L0.29,-0.711L0.068,-0.711L0.068,-0Z" style="fill:white;fill-rule:nonzero;"/>
                    </g>
                    <g transform="matrix(41.666667,0,0,41.666667,698.669781,737.127391)">
                        <path d="M0.068,-0L0.334,-0C0.434,-0 0.519,-0.028 0.587,-0.085C0.655,-0.142 0.689,-0.225 0.689,-0.333L0.689,-0.378C0.689,-0.486 0.655,-0.569 0.587,-0.626C0.519,-0.683 0.434,-0.711 0.334,-0.711L0.068,-0.711L0.068,-0ZM0.272,-0.146L0.272,-0.564L0.33,-0.564C0.373,-0.564 0.408,-0.55 0.436,-0.522C0.464,-0.494 0.479,-0.447 0.479,-0.383L0.479,-0.328C0.479,-0.264 0.464,-0.217 0.436,-0.189C0.408,-0.16 0.373,-0.146 0.33,-0.146L0.272,-0.146Z" style="fill:white;fill-rule:nonzero;"/>
                    </g>
                    <g transform="matrix(41.666667,0,0,41.666667,729.105979,737.127391)">
                    </g>
                </g>
                <g transform="matrix(0.10573,0,0,0.10573,538.307388,568.613686)">
                    <path d="M328.893,280.57L246.329,280.57L246.329,196.468L328.893,196.468L328.893,113.904L412.996,113.904L412.996,196.468L495.56,196.468L495.56,280.57L412.996,280.57L412.996,363.134L328.893,363.134L328.893,280.57Z" style="fill:white;"/>
                </g>
                <g transform="matrix(0.890723,0,0,0.890723,-30.511177,-49.442578)">
                    <g transform="matrix(41.666667,0,0,41.666667,522.156109,737.127391)">
                        <path d="M0.068,-0L0.274,-0L0.274,-0.226L0.354,-0.226C0.444,-0.226 0.514,-0.247 0.566,-0.289C0.618,-0.33 0.644,-0.391 0.644,-0.471C0.644,-0.55 0.618,-0.61 0.567,-0.65C0.515,-0.691 0.445,-0.711 0.355,-0.711L0.068,-0.711L0.068,-0ZM0.274,-0.371L0.274,-0.564L0.345,-0.564C0.378,-0.564 0.402,-0.556 0.417,-0.541C0.432,-0.526 0.439,-0.502 0.439,-0.469C0.439,-0.435 0.431,-0.41 0.417,-0.394C0.402,-0.378 0.378,-0.371 0.345,-0.371L0.274,-0.371ZM0.443,-0L0.674,-0L0.505,-0.328L0.282,-0.328L0.443,-0Z" style="fill:white;fill-rule:nonzero;"/>
                    </g>
                    <g transform="matrix(41.666667,0,0,41.666667,550.028831,737.127391)">
                        <path d="M0.068,-0L0.585,-0L0.585,-0.149L0.272,-0.149L0.272,-0.292L0.536,-0.292L0.536,-0.438L0.272,-0.438L0.272,-0.561L0.58,-0.561L0.58,-0.711L0.068,-0.711L0.068,-0Z" style="fill:white;fill-rule:nonzero;"/>
                    </g>
                    <g transform="matrix(41.666667,0,0,41.666667,575.643251,737.127391)">
                        <path d="M-0.027,-0L0.158,-0L0.327,-0.468C0.331,-0.479 0.333,-0.49 0.335,-0.5C0.337,-0.51 0.339,-0.52 0.34,-0.53L0.344,-0.53C0.345,-0.52 0.347,-0.51 0.349,-0.5C0.351,-0.49 0.354,-0.479 0.357,-0.468L0.528,-0L0.753,-0L0.474,-0.713L0.243,-0.713L-0.027,-0ZM0.164,-0.128L0.54,-0.128L0.498,-0.273L0.204,-0.273L0.164,-0.128Z" style="fill:white;fill-rule:nonzero;"/>
                    </g>
                    <g transform="matrix(41.666667,0,0,41.666667,605.896344,737.127391)">
                        <path d="M0.041,-0.333C0.041,-0.218 0.071,-0.131 0.132,-0.073C0.193,-0.015 0.276,0.014 0.38,0.014C0.475,0.014 0.551,-0.01 0.608,-0.057C0.664,-0.104 0.693,-0.168 0.693,-0.247L0.693,-0.268L0.484,-0.268L0.484,-0.247C0.484,-0.21 0.476,-0.183 0.459,-0.164C0.442,-0.145 0.417,-0.136 0.381,-0.136C0.338,-0.136 0.306,-0.148 0.285,-0.174C0.265,-0.199 0.254,-0.241 0.254,-0.301L0.254,-0.41C0.254,-0.474 0.265,-0.517 0.287,-0.54C0.309,-0.563 0.339,-0.575 0.377,-0.575C0.414,-0.575 0.44,-0.566 0.458,-0.55C0.476,-0.534 0.484,-0.505 0.484,-0.465L0.484,-0.443L0.693,-0.443L0.693,-0.461C0.693,-0.542 0.664,-0.607 0.608,-0.654C0.551,-0.701 0.475,-0.725 0.38,-0.725C0.277,-0.725 0.194,-0.697 0.133,-0.64C0.072,-0.583 0.041,-0.495 0.041,-0.377L0.041,-0.333Z" style="fill:white;fill-rule:nonzero;"/>
                    </g>
                    <g transform="matrix(41.666667,0,0,41.666667,634.704937,737.127391)">
                        <path d="M0.011,-0.561L0.205,-0.561L0.205,-0L0.411,-0L0.411,-0.561L0.605,-0.561L0.605,-0.711L0.011,-0.711L0.011,-0.561Z" style="fill:white;fill-rule:nonzero;"/>
                    </g>
                    <g transform="matrix(41.666667,0,0,41.666667,660.339703,737.127391)">
                    </g>
                </g>
                <g transform="matrix(0.413711,0,0,0.413711,239.062026,357.58557)">
                    <g transform="matrix(41.666667,0,0,41.666667,479.300904,527.658815)">
                        <path d="M-0.013,-0L0.126,-0L0.309,-0.503C0.313,-0.513 0.316,-0.524 0.318,-0.534C0.321,-0.544 0.323,-0.554 0.325,-0.565L0.329,-0.565C0.331,-0.554 0.333,-0.544 0.335,-0.534C0.338,-0.524 0.341,-0.514 0.345,-0.503L0.528,-0L0.689,-0L0.414,-0.714L0.257,-0.714L-0.013,-0ZM0.14,-0.157L0.523,-0.157L0.489,-0.268L0.175,-0.268L0.14,-0.157Z" style="fill:white;fill-rule:nonzero;"/>
                    </g>
                    <g transform="matrix(41.666667,0,0,41.666667,507.458456,527.658815)">
                        <path d="M0.076,-0L0.205,-0L0.205,-0.429C0.205,-0.44 0.205,-0.451 0.205,-0.462C0.205,-0.473 0.204,-0.484 0.204,-0.495L0.208,-0.495C0.211,-0.485 0.215,-0.475 0.219,-0.466C0.223,-0.457 0.228,-0.447 0.233,-0.437L0.486,-0L0.649,-0L0.649,-0.711L0.52,-0.711L0.52,-0.276C0.52,-0.265 0.52,-0.255 0.52,-0.245C0.52,-0.235 0.52,-0.225 0.521,-0.214L0.517,-0.214C0.513,-0.224 0.509,-0.233 0.505,-0.242C0.501,-0.251 0.496,-0.26 0.49,-0.27L0.235,-0.711L0.076,-0.711L0.076,-0Z" style="fill:white;fill-rule:nonzero;"/>
                    </g>
                    <g transform="matrix(41.666667,0,0,41.666667,537.670858,527.658815)">
                        <path d="M0.049,-0.333C0.049,-0.22 0.078,-0.134 0.138,-0.074C0.197,-0.015 0.273,0.014 0.367,0.014C0.46,0.014 0.537,-0.015 0.597,-0.074C0.657,-0.134 0.687,-0.22 0.687,-0.333L0.687,-0.378C0.687,-0.491 0.657,-0.577 0.597,-0.636C0.537,-0.696 0.46,-0.725 0.367,-0.725C0.273,-0.725 0.197,-0.696 0.138,-0.636C0.078,-0.577 0.049,-0.491 0.049,-0.378L0.049,-0.333ZM0.202,-0.32L0.202,-0.391C0.202,-0.465 0.217,-0.52 0.247,-0.556C0.277,-0.592 0.317,-0.61 0.367,-0.61C0.417,-0.61 0.458,-0.592 0.488,-0.556C0.518,-0.52 0.533,-0.465 0.533,-0.391L0.533,-0.32C0.533,-0.246 0.518,-0.191 0.488,-0.155C0.458,-0.119 0.417,-0.101 0.367,-0.101C0.317,-0.101 0.277,-0.119 0.247,-0.155C0.217,-0.191 0.202,-0.246 0.202,-0.32Z" style="fill:white;fill-rule:nonzero;"/>
                    </g>
                    <g transform="matrix(41.666667,0,0,41.666667,567.781535,527.658815)">
                        <path d="M0.011,-0.597L0.223,-0.597L0.223,-0L0.373,-0L0.373,-0.597L0.584,-0.597L0.584,-0.711L0.011,-0.711L0.011,-0.597Z" style="fill:white;fill-rule:nonzero;"/>
                    </g>
                    <g transform="matrix(41.666667,0,0,41.666667,592.561809,527.658815)">
                        <path d="M0.076,-0L0.225,-0L0.225,-0.309L0.512,-0.309L0.512,-0L0.661,-0L0.661,-0.711L0.512,-0.711L0.512,-0.424L0.225,-0.424L0.225,-0.711L0.076,-0.711L0.076,-0Z" style="fill:white;fill-rule:nonzero;"/>
                    </g>
                    <g transform="matrix(41.666667,0,0,41.666667,623.242147,527.658815)">
                        <path d="M0.076,-0L0.56,-0L0.56,-0.113L0.224,-0.113L0.224,-0.31L0.51,-0.31L0.51,-0.422L0.224,-0.422L0.224,-0.597L0.554,-0.597L0.554,-0.711L0.076,-0.711L0.076,-0Z" style="fill:white;fill-rule:nonzero;"/>
                    </g>
                    <g transform="matrix(41.666667,0,0,41.666667,647.880006,527.658815)">
                        <path d="M0.076,-0L0.225,-0L0.225,-0.258L0.334,-0.258C0.417,-0.258 0.482,-0.278 0.528,-0.319C0.575,-0.359 0.598,-0.415 0.598,-0.487C0.598,-0.558 0.575,-0.613 0.529,-0.652C0.482,-0.691 0.418,-0.711 0.335,-0.711L0.076,-0.711L0.076,-0ZM0.225,-0.368L0.225,-0.599L0.33,-0.599C0.373,-0.599 0.404,-0.589 0.422,-0.569C0.44,-0.549 0.449,-0.521 0.449,-0.485C0.449,-0.45 0.44,-0.421 0.422,-0.4C0.404,-0.379 0.373,-0.368 0.33,-0.368L0.225,-0.368ZM0.465,-0L0.632,-0L0.455,-0.335L0.297,-0.328L0.465,-0Z" style="fill:white;fill-rule:nonzero;"/>
                    </g>
                    <g transform="matrix(41.666667,0,0,41.666667,674.532024,527.658815)">
                    </g>
                </g>
            </g>
        </g>
    </g>
</svg>
